<mxfile host="draw.local.lapc.ca" agent="Mozilla/5.0 (Windows NT 10.0; Win64; x64) AppleWebKit/537.36 (KHTML, like Gecko) Chrome/133.0.0.0 Safari/537.36" version="24.7.17">
  <diagram id="prtHgNgQTEPvFCAcTncT" name="Page-1">
    <mxGraphModel dx="895" dy="1595" grid="1" gridSize="10" guides="1" tooltips="1" connect="1" arrows="1" fold="1" page="1" pageScale="1" pageWidth="827" pageHeight="1169" math="0" shadow="0">
      <root>
        <mxCell id="0" />
        <mxCell id="1" parent="0" />
        <mxCell id="8MqQpcR2l2HFRwdaDn33-15" value="" style="edgeStyle=orthogonalEdgeStyle;rounded=0;orthogonalLoop=1;jettySize=auto;html=1;exitX=0.13;exitY=0.77;exitDx=0;exitDy=0;exitPerimeter=0;entryX=1;entryY=1;entryDx=0;entryDy=0;" parent="1" target="kbRCFEwe1SqCSlZP-cMl-3" edge="1">
          <mxGeometry relative="1" as="geometry">
            <mxPoint x="419" y="90.10000000000002" as="sourcePoint" />
            <mxPoint x="229.9999999999999" y="140" as="targetPoint" />
          </mxGeometry>
        </mxCell>
        <mxCell id="kbRCFEwe1SqCSlZP-cMl-3" value="&lt;font style=&quot;font-size: 12px;&quot;&gt;https://www.legisquebec.gouv.qc.ca/en/&lt;br&gt;https://laws-lois.justice.gc.ca/eng/acts/&lt;br&gt;(grabbing the utmost important ones..Eventually will add more)&lt;/font&gt;" style="ellipse;shape=cloud;whiteSpace=wrap;html=1;align=center;" parent="1" vertex="1">
          <mxGeometry x="160" y="-12" width="470" height="200" as="geometry" />
        </mxCell>
        <mxCell id="kbRCFEwe1SqCSlZP-cMl-12" style="edgeStyle=orthogonalEdgeStyle;rounded=0;orthogonalLoop=1;jettySize=auto;html=1;entryX=0.25;entryY=0;entryDx=0;entryDy=0;" parent="1" source="kbRCFEwe1SqCSlZP-cMl-1" target="kbRCFEwe1SqCSlZP-cMl-10" edge="1">
          <mxGeometry relative="1" as="geometry" />
        </mxCell>
        <mxCell id="kbRCFEwe1SqCSlZP-cMl-2" value="&lt;font style=&quot;font-size: 18px;&quot;&gt;Phoenix Wright Law Assistant -- concentration on statutes&lt;/font&gt;" style="text;html=1;align=center;verticalAlign=middle;resizable=0;points=[];autosize=1;strokeColor=none;fillColor=none;" parent="1" vertex="1">
          <mxGeometry x="35" y="-40" width="480" height="40" as="geometry" />
        </mxCell>
        <mxCell id="kbRCFEwe1SqCSlZP-cMl-5" style="edgeStyle=orthogonalEdgeStyle;rounded=0;orthogonalLoop=1;jettySize=auto;html=1;exitX=0.13;exitY=0.77;exitDx=0;exitDy=0;exitPerimeter=0;entryX=1;entryY=1;entryDx=0;entryDy=0;" parent="1" source="kbRCFEwe1SqCSlZP-cMl-3" edge="1">
          <mxGeometry relative="1" as="geometry">
            <mxPoint x="419" y="90.10000000000002" as="sourcePoint" />
            <mxPoint x="229.9999999999999" y="140" as="targetPoint" />
          </mxGeometry>
        </mxCell>
        <mxCell id="kbRCFEwe1SqCSlZP-cMl-10" value="&lt;div style=&quot;font-size: 13px;&quot;&gt;&lt;a href=&quot;https://github.com/KiddRedd/PDFtoMarkdownConverter/tree/main&quot;&gt;Run&amp;nbsp;&lt;span style=&quot;background-color: initial; font-size: 12px;&quot;&gt;script that converts the pdf documents into markdown&lt;/span&gt;&lt;/a&gt;&lt;/div&gt;" style="shape=step;perimeter=stepPerimeter;whiteSpace=wrap;html=1;fixedSize=1;align=center;textShadow=0;" parent="1" vertex="1">
          <mxGeometry x="240" y="240" width="510" height="90" as="geometry" />
        </mxCell>
        <mxCell id="8MqQpcR2l2HFRwdaDn33-3" style="rounded=0;orthogonalLoop=1;jettySize=auto;html=1;exitX=0.25;exitY=0;exitDx=0;exitDy=0;entryX=0.516;entryY=1.007;entryDx=0;entryDy=0;shape=link;entryPerimeter=0;" parent="1" source="8MqQpcR2l2HFRwdaDn33-2" target="kbRCFEwe1SqCSlZP-cMl-10" edge="1">
          <mxGeometry relative="1" as="geometry" />
        </mxCell>
        <mxCell id="8MqQpcR2l2HFRwdaDn33-2" value="&lt;h2&gt;&lt;br&gt;&lt;/h2&gt;&lt;h2&gt;Figure out Post Processing&lt;/h2&gt;&lt;p&gt;&lt;br&gt;&lt;/p&gt;" style="rounded=1;whiteSpace=wrap;html=1;" parent="1" vertex="1">
          <mxGeometry x="20" y="330" width="220" height="50" as="geometry" />
        </mxCell>
        <mxCell id="edCvz9phKfOA1gh2rTQ--2" value="" style="edgeStyle=orthogonalEdgeStyle;rounded=0;orthogonalLoop=1;jettySize=auto;html=1;" edge="1" parent="1" source="8MqQpcR2l2HFRwdaDn33-4" target="edCvz9phKfOA1gh2rTQ--1">
          <mxGeometry relative="1" as="geometry" />
        </mxCell>
        <mxCell id="8MqQpcR2l2HFRwdaDn33-4" value="&lt;ul style=&quot;padding-left: 0px; font-size: 17px;&quot;&gt;&lt;li&gt;&lt;p&gt;Chunks,&amp;nbsp;&lt;/p&gt;&lt;/li&gt;&lt;li&gt;&lt;p&gt;Splitter,&lt;/p&gt;&lt;/li&gt;&lt;li&gt;&lt;p&gt;Chunk Overlap&amp;nbsp;&lt;/p&gt;&lt;/li&gt;&lt;/ul&gt;" style="whiteSpace=wrap;html=1;aspect=fixed;align=left;" parent="1" vertex="1">
          <mxGeometry x="30" y="380" width="130" height="130" as="geometry" />
        </mxCell>
        <mxCell id="8MqQpcR2l2HFRwdaDn33-11" value="Provincial" style="swimlane;fontStyle=0;childLayout=stackLayout;horizontal=1;startSize=26;fillColor=none;horizontalStack=0;resizeParent=1;resizeParentMax=0;resizeLast=0;collapsible=1;marginBottom=0;whiteSpace=wrap;html=1;" parent="1" vertex="1">
          <mxGeometry x="690" y="3" width="100" height="170" as="geometry" />
        </mxCell>
        <mxCell id="8MqQpcR2l2HFRwdaDn33-14" value="&lt;div&gt;&lt;a href=&quot;https://www.legisquebec.gouv.qc.ca/en/pdf/cs/P-40.1.pdf&quot;&gt;P-40&lt;/a&gt;&lt;/div&gt;&lt;div&gt;&lt;a href=&quot;https://www.legisquebec.gouv.qc.ca/en/pdf/cs/C-12.pdf&quot;&gt;C-12&lt;/a&gt;&lt;/div&gt;&lt;div&gt;&lt;a href=&quot;https://www.legisquebec.gouv.qc.ca/en/pdf/cs/C-27.pdf&quot;&gt;C-27&lt;/a&gt;&lt;/div&gt;&lt;div&gt;&lt;a href=&quot;https://www.legisquebec.gouv.qc.ca/en/pdf/cs/CCQ-1991.pdf&quot;&gt;CCQ&lt;/a&gt;&lt;/div&gt;&lt;div&gt;&lt;a href=&quot;https://www.legisquebec.gouv.qc.ca/en/pdf/cs/C-24.2.pdf&quot;&gt;C-24-2&lt;/a&gt;&lt;/div&gt;&lt;div&gt;&lt;a href=&quot;https://www.legisquebec.gouv.qc.ca/en/pdf/cs/P-13.1.pdf&quot;&gt;P-13.1&lt;/a&gt;&lt;br&gt;&lt;a href=&quot;https://www.legisquebec.gouv.qc.ca/en/pdf/cs/E-6.pdf&quot;&gt;E-6&lt;/a&gt;&lt;br&gt;&lt;a href=&quot;https://www.legisquebec.gouv.qc.ca/en/pdf/cs/C-25.01.pdf&quot;&gt;C-25-01&lt;/a&gt;&lt;/div&gt;&lt;div&gt;&lt;a href=&quot;https://www.legisquebec.gouv.qc.ca/en/pdf/cs/C-25.1.pdf&quot;&gt;C-25.1&lt;/a&gt;&lt;/div&gt;&lt;div&gt;&lt;br&gt;&lt;/div&gt;&lt;div&gt;&lt;br&gt;&lt;/div&gt;&lt;div&gt;&lt;br&gt;&lt;/div&gt;&lt;div&gt;&lt;br&gt;&lt;/div&gt;&lt;div&gt;&lt;br&gt;&lt;/div&gt;" style="text;strokeColor=none;fillColor=none;align=left;verticalAlign=top;spacingLeft=4;spacingRight=4;overflow=hidden;rotatable=0;points=[[0,0.5],[1,0.5]];portConstraint=eastwest;whiteSpace=wrap;html=1;" parent="8MqQpcR2l2HFRwdaDn33-11" vertex="1">
          <mxGeometry y="26" width="100" height="144" as="geometry" />
        </mxCell>
        <mxCell id="8MqQpcR2l2HFRwdaDn33-7" value="Federal" style="swimlane;fontStyle=0;childLayout=stackLayout;horizontal=1;startSize=26;fillColor=none;horizontalStack=0;resizeParent=1;resizeParentMax=0;resizeLast=0;collapsible=1;marginBottom=0;whiteSpace=wrap;html=1;" parent="1" vertex="1">
          <mxGeometry x="590" y="3" width="90" height="170" as="geometry" />
        </mxCell>
        <mxCell id="8MqQpcR2l2HFRwdaDn33-8" value="&lt;a href=&quot;https://laws.justice.gc.ca/PDF/C-46.pdf&quot;&gt;C-46&lt;br&gt;&lt;/a&gt;&lt;a href=&quot;https://laws-lois.justice.gc.ca/PDF/Y-1.5.pdf&quot;&gt;Y-1.5&lt;/a&gt;&lt;br&gt;&lt;div&gt;&lt;a href=&quot;https://laws-lois.justice.gc.ca/PDF/P-21.pdf&quot;&gt;P-21&lt;br&gt;&lt;/a&gt;&lt;a href=&quot;https://laws-lois.justice.gc.ca/PDF/A-1.pdf&quot;&gt;A-1&lt;/a&gt;&lt;br&gt;&lt;a href=&quot;https://laws-lois.justice.gc.ca/PDF/C-42.pdf&quot;&gt;C-42&lt;/a&gt;&lt;br&gt;&lt;a href=&quot;https://laws-lois.justice.gc.ca/PDF/I-3.3.pdf&quot;&gt;I-3.3&lt;/a&gt;&lt;br&gt;I&lt;a href=&quot;https://laws-lois.justice.gc.ca/PDF/I-21.pdf&quot;&gt;-21&lt;/a&gt;&lt;br&gt;&lt;a href=&quot;https://laws.justice.gc.ca/PDF/Const_RPT.pdf&quot;&gt;Const Act&lt;/a&gt;&lt;br&gt;&lt;a href=&quot;https://laws.justice.gc.ca/eng/acts/O-1/index.html&quot;&gt;O-1&lt;/a&gt;&lt;/div&gt;" style="text;strokeColor=none;fillColor=none;align=left;verticalAlign=top;spacingLeft=4;spacingRight=4;overflow=hidden;rotatable=0;points=[[0,0.5],[1,0.5]];portConstraint=eastwest;whiteSpace=wrap;html=1;" parent="8MqQpcR2l2HFRwdaDn33-7" vertex="1">
          <mxGeometry y="26" width="90" height="144" as="geometry" />
        </mxCell>
        <mxCell id="kbRCFEwe1SqCSlZP-cMl-1" value="&lt;font size=&quot;3&quot;&gt;Run script that downloads legal PDF statutes from official websites and saves them locally.&lt;br&gt;Cron or Schedule to run every month to check for update and download/replace IF date is later than current PDF document.&lt;/font&gt;" style="rounded=0;whiteSpace=wrap;html=1;" parent="1" vertex="1">
          <mxGeometry y="130" width="280" height="130" as="geometry" />
        </mxCell>
        <mxCell id="8MqQpcR2l2HFRwdaDn33-16" value="Up until now, I am loading the non post-processed into AI. It is able to find and see certain portions but its not perfect, since the markdown document is kinda messy.&amp;nbsp;" style="rounded=0;whiteSpace=wrap;html=1;labelBorderColor=#B266FF;" parent="1" vertex="1">
          <mxGeometry x="350" y="330" width="180" height="180" as="geometry" />
        </mxCell>
        <mxCell id="edCvz9phKfOA1gh2rTQ--1" value="500 chunk seems to be the average one which works.&lt;div&gt;It&#39;s the Overlap I must master.&amp;nbsp;&amp;nbsp;&lt;br&gt;&lt;a href=&quot;https://github.com/KiddRedd/PDFtoMarkdownConverter/tree/main/Examples/Markdown%20w%20500%20chunks&quot;&gt;Here are my current examples&lt;/a&gt;&lt;/div&gt;" style="whiteSpace=wrap;html=1;align=left;" vertex="1" parent="1">
          <mxGeometry x="30" y="540" width="170" height="70" as="geometry" />
        </mxCell>
      </root>
    </mxGraphModel>
  </diagram>
</mxfile>
